<svg aria-hidden="true" style="position:absolute;width:0;height:0;overflow:hidden" xmlns="http://www.w3.org/2000/svg">
    <defs>
        <!-- Логотип -->
        <symbol id="logo" viewBox="0 0 107 32">
            <path fill="#ff6b0a" style="fill:var(--color1, #ff6b0a)" d="M106.667 0v32H59.536V0h47.131zM74.42 8.811v13.927l.001.044a.842.842 0 0 1-.001.087c-.007.08.015.128.107.115a.485.485 0 0 1 .066-.001l.033.001h3.582c.075.001.112.001.129-.017s.016-.051.014-.116l-.001-.078V8.83l-.001-.033a.485.485 0 0 1 .001-.066c.008-.082-.02-.125-.109-.115-.018.002-.036.001-.054.001l-.028-.001h-3.55l-.062-.001c-.065-.001-.098-.001-.114.015s-.016.049-.015.116l.001.064z"/>
        </symbol>
        <!-- JavaScript -->
        <symbol id="javascript" viewBox="0 0 32 32">
            <path fill="#f7df1e" style="fill:var(--color3, #f7df1e)" d="M0 0h32v32H0V0z"/>
            <path style="fill:var(--color4, #000)" d="m8.414 26.741 2.449-1.482c.473.838.902 1.546 1.933 1.546.988 0 1.611-.387 1.611-1.89V14.69h3.007v10.267c0 3.115-1.826 4.532-4.489 4.532-2.406 0-3.802-1.246-4.511-2.75zm10.634-.322 2.448-1.418c.645 1.053 1.482 1.826 2.964 1.826 1.246 0 2.041-.623 2.041-1.482 0-1.031-.816-1.396-2.191-1.997l-.752-.323c-2.17-.923-3.609-2.083-3.609-4.532 0-2.256 1.718-3.974 4.404-3.974 1.912 0 3.287.666 4.274 2.406l-2.341 1.504c-.516-.924-1.074-1.289-1.933-1.289-.881 0-1.439.558-1.439 1.289 0 .902.558 1.268 1.847 1.826l.752.322c2.556 1.096 3.995 2.212 3.995 4.726 0 2.707-2.127 4.189-4.983 4.189-2.792 0-4.597-1.332-5.477-3.072z"/>
        </symbol>
        <!-- Instagram  -->
        <symbol id="icon-IG" viewBox="0 0 24 24">
            <path fill="currentColor" d="M12 2.163c3.204 0 3.584.012 4.849.07 1.366.062 2.633.323 3.608 1.297.975.975 1.235 2.242 1.297 3.608.058 1.265.07 1.645.07 4.849s-.012 3.584-.07 4.849c-.062 1.366-.323 2.633-1.297 3.608-.975.975-2.242 1.235-3.608 1.297-1.265.058-1.645.07-4.849.07s-3.584-.012-4.849-.07c-1.366-.062-2.633-.323-3.608-1.297-.975-.975-1.235-2.242-1.297-3.608-.058-1.265-.07-1.645-.07-4.849s.012-3.584.07-4.849c.062-1.366.323-2.633 1.297-3.608.975-.975 2.242-1.235 3.608-1.297 1.265-.058 1.645-.07 4.849-.07M12 0C8.741 0 8.332.014 7.053.072 5.75.13 4.55.329 3.525 1.354c-1.025 1.025-1.224 2.225-1.282 3.528C2.014 6.668 2 7.078 2 10.337v3.325c0 3.259.014 3.668.072 4.947.058 1.303.257 2.503 1.282 3.528 1.025 1.025 2.225 1.224 3.528 1.282 1.279.058 1.688.072 4.947.072s3.668-.014 4.947-.072c1.303-.058 2.503-.257 3.528-1.282 1.025-1.025 1.224-2.225 1.282-3.528.058-1.279.072-1.688.072-4.947V10.337c0-3.259-.014-3.668-.072-4.947-.058-1.303-.257-2.503-1.282-3.528C18.453.329 17.253.13 15.95.072 14.671.014 14.261 0 12 0zM12 5.838a6.162 6.162 0 100 12.324 6.162 6.162 0 000-12.324zm0 10.162a4 4 0 110-8 4 4 0 010 8zm6.406-11.845a1.44 1.44 0 100 2.88 1.44 1.44 0 000-2.88z"/>
        </symbol>
        <!-- YouTube -->
        <symbol id="icon-YT" viewBox="0 0 56 32">
            <path d="M29.522 4.979v-4.021h24.042v4.021h-9.667v27.021h-4.667v-27.021h-9.709z"/>
        </symbol>
        <!-- Facebook -->
        <symbol id="icon-FB" viewBox="0 0 48 32">
            <path d="M2.5 32v-31.042h19.271v4.021h-14.583v10.062h13.187v4h-13.188v12.958h-4.688z"/>
        </symbol>
        <!-- GitHub -->
        <symbol id="icon-GH" viewBox="0 0 54 32">
            <path d="M14.423 29.923c-2.59 0-4.865-0.596-6.827-1.788-1.949-1.192-3.474-2.885-4.577-5.077-1.09-2.205-1.635-4.814-1.635-7.827"/>
        </symbol>
    </defs>
</svg>