<svg aria-hidden="true" style="position:absolute;width:0;height:0;overflow:hidden" xmlns="http://www.w3.org/2000/svg">
    <defs>
        <!-- Логотип -->
        <symbol id="logo" viewBox="0 0 107 32">
            <path fill="#ff6b0a" style="fill:var(--color1, #ff6b0a)" d="M106.667 0v32H59.536V0h47.131zM74.42 8.811v13.927l.001.044a.842.842 0 0 1-.001.087c-.007.08.015.128.107.115a.485.485 0 0 1 .066-.001l.033.001h3.582c.075.001.112.001.129-.017s.016-.051.014-.116l-.001-.078V8.83l-.001-.033a.485.485 0 0 1 .001-.066c.008-.082-.02-.125-.109-.115-.018.002-.036.001-.054.001l-.028-.001h-3.55l-.062-.001c-.065-.001-.098-.001-.114.015s-.016.049-.015.116l.001.064z"/>
        </symbol>
        <!-- JavaScript -->
        <symbol id="javascript" viewBox="0 0 32 32">
            <path fill="#f7df1e" style="fill:var(--color3, #f7df1e)" d="M0 0h32v32H0V0z"/>
            <path style="fill:var(--color4, #000)" d="m8.414 26.741 2.449-1.482c.473.838.902 1.546 1.933 1.546.988 0 1.611-.387 1.611-1.89V14.69h3.007v10.267c0 3.115-1.826 4.532-4.489 4.532-2.406 0-3.802-1.246-4.511-2.75zm10.634-.322 2.448-1.418c.645 1.053 1.482 1.826 2.964 1.826 1.246 0 2.041-.623 2.041-1.482 0-1.031-.816-1.396-2.191-1.997l-.752-.323c-2.17-.923-3.609-2.083-3.609-4.532 0-2.256 1.718-3.974 4.404-3.974 1.912 0 3.287.666 4.274 2.406l-2.341 1.504c-.516-.924-1.074-1.289-1.933-1.289-.881 0-1.439.558-1.439 1.289 0 .902.558 1.268 1.847 1.826l.752.322c2.556 1.096 3.995 2.212 3.995 4.726 0 2.707-2.127 4.189-4.983 4.189-2.792 0-4.597-1.332-5.477-3.072z"/>
        </symbol>
        <symbol id="icon-YT" viewBox="0 0 56 32">
            <path d="M1.438 0.958h5.313l8.125 14.125h0.333l8.083-14.125h5.354l-11.271 18.854v12.188h-4.688v-12.188l-11.25-18.854zM29.522 4.979v-4.021h24.042v4.021h-9.667v27.021h-4.667v-27.021h-9.709z"></path>
        </symbol>
        <symbol id="icon-FB" viewBox="0 0 48 32">
            <path d="M2.5 32v-31.042h19.271v4.021h-14.583v10.062h13.187v4h-13.188v12.958h-4.688zM24.855 32v-31.042h11.396c2.194 0 4.014 0.361 5.458 1.083s2.521 1.701 3.229 2.938c0.722 1.222 1.083 2.597 1.083 4.125 0 1.292-0.243 2.382-0.729 3.271-0.472 0.889-1.104 1.597-1.896 2.125s-1.667 0.917-2.625 1.167v0.292c1.042 0.056 2.055 0.389 3.042 1s1.799 1.479 2.438 2.604c0.653 1.111 0.979 2.472 0.979 4.083 0 1.583-0.375 3.007-1.125 4.271-0.736 1.25-1.875 2.243-3.417 2.979s-3.521 1.104-5.937 1.104h-11.896zM29.542 28h6.75c2.25 0 3.861-0.438 4.833-1.313s1.458-1.965 1.458-3.271c0-0.986-0.25-1.882-0.75-2.688-0.486-0.819-1.187-1.472-2.104-1.958s-2-0.729-3.25-0.729h-6.938v9.958zM29.542 14.396h6.292c1.042 0 1.986-0.201 2.833-0.604s1.514-0.972 2-1.708c0.5-0.75 0.75-1.618 0.75-2.604 0-1.278-0.451-2.347-1.354-3.208-0.889-0.875-2.257-1.312-4.104-1.312h-6.417v9.438z"></path>
        </symbol>
        <symbol id="icon-GH" viewBox="0 0 54 32">
            <path d="M14.423 29.923c-2.59 0-4.865-0.596-6.827-1.788-1.949-1.192-3.474-2.885-4.577-5.077-1.090-2.205-1.635-4.814-1.635-7.827 0-3.051 0.551-5.673 1.654-7.865 1.115-2.205 2.641-3.897 4.577-5.077 1.936-1.192 4.141-1.788 6.615-1.788 1.538 0 2.974 0.231 4.308 0.692 1.346 0.449 2.538 1.096 3.577 1.942 1.051 0.846 1.917 1.846 2.596 3 0.692 1.141 1.16 2.41 1.404 3.808h-4.423c-0.269-0.859-0.628-1.622-1.077-2.288-0.449-0.679-0.987-1.256-1.615-1.731-0.628-0.487-1.34-0.853-2.135-1.096-0.782-0.256-1.654-0.385-2.615-0.385-1.615 0-3.070 0.417-4.365 1.25-1.295 0.821-2.321 2.032-3.077 3.635s-1.135 3.564-1.135 5.885c0 2.321 0.378 4.282 1.135 5.885s1.795 2.821 3.115 3.654c1.321 0.82 2.82 1.231 4.5 1.231 1.551 0 2.904-0.314 4.058-0.942 1.154-0.641 2.051-1.538 2.692-2.692s0.962-2.519 0.962-4.096l1.135 0.212h-8.192v-3.577h11.269v3.269c0 2.41-0.513 4.494-1.538 6.25-1.013 1.756-2.423 3.115-4.231 4.077-1.795 0.961-3.846 1.442-6.154 1.442zM29.366 29.538v-28.654h4.327v12.462h14.269v-12.462h4.327v28.654h-4.327v-12.481h-14.269v12.481h-4.327z"></path>
        </symbol>
        <symbol id="icon-IG" viewBox="0 0 37 32">
            <path d="M6.635 0.885v28.654h-4.327v-28.654h4.327zM22.597 29.923c-2.59 0-4.865-0.596-6.827-1.788-1.949-1.192-3.474-2.885-4.577-5.077-1.090-2.205-1.635-4.814-1.635-7.827 0-3.051 0.551-5.673 1.654-7.865 1.115-2.205 2.641-3.897 4.577-5.077 1.936-1.192 4.141-1.788 6.615-1.788 1.538 0 2.974 0.231 4.308 0.692 1.346 0.449 2.538 1.096 3.577 1.942 1.051 0.846 1.917 1.846 2.596 3 0.692 1.141 1.16 2.41 1.404 3.808h-4.423c-0.269-0.859-0.628-1.622-1.077-2.288-0.449-0.679-0.987-1.256-1.615-1.731-0.628-0.487-1.34-0.853-2.135-1.096-0.782-0.256-1.654-0.385-2.615-0.385-1.615 0-3.071 0.417-4.365 1.25-1.295 0.821-2.321 2.032-3.077 3.635s-1.135 3.564-1.135 5.885c0 2.321 0.378 4.282 1.135 5.885s1.795 2.821 3.115 3.654c1.32 0.82 2.82 1.231 4.5 1.231 1.551 0 2.904-0.314 4.058-0.942 1.154-0.641 2.051-1.538 2.692-2.692s0.961-2.519 0.961-4.096l1.135 0.212h-8.192v-3.577h11.269v3.269c0 2.41-0.513 4.494-1.538 6.25-1.013 1.756-2.423 3.115-4.231 4.077-1.795 0.961-3.846 1.442-6.154 1.442z"></path>
        </symbol>
        <symbol id="icon-x" viewBox="0 0 32 32">
            <path fill="none" stroke="#FAFAFA" style="stroke: var(--color1, #FAFAFA)" stroke-linejoin="round" stroke-linecap="round" stroke-miterlimit="4" stroke-width="2.9091" d="M24 8l-16 16"></path>
            <path fill="none" stroke="#FAFAFA" style="stroke: var(--color1, #FAFAFA)" stroke-linejoin="round" stroke-linecap="round" stroke-miterlimit="4" stroke-width="2.9091" d="M8 8l16 16"></path>
        </symbol>
        <symbol id="icon-Vector-9" viewBox="0 0 48 32">
            <path fill="none" stroke="#FAFAFA" style="stroke: var(--color1, #FAFAFA)" stroke-linejoin="miter" stroke-linecap="butt" stroke-miterlimit="4" stroke-width="8" d="M44 26l-20-20-20 20"></path>
        </symbol>
        <symbol id="icon-Vector-91" viewBox="0 0 48 32">
            <path fill="none" stroke="#FAFAFA" style="stroke: var(--color1, #FAFAFA)" stroke-linejoin="miter" stroke-linecap="butt" stroke-miterlimit="4" stroke-width="8" d="M44 26l-20-20-20 20"></path>
        </symbol>
        <symbol id="icon-arrow-narrow-right" viewBox="0 0 32 32">
            <path stroke-linejoin="round" stroke-linecap="round" stroke-miterlimit="4" stroke-width="1.6" d="M5.333 16h21.333"></path>
            <path stroke-linejoin="round" stroke-linecap="round" stroke-miterlimit="4" stroke-width="1.6" d="M18.667 8l8 8-8 8"></path>
        </symbol>
        <symbol id="icon-arrow-narrow-left" viewBox="0 0 32 32">
            <path stroke-linejoin="round" stroke-linecap="round" stroke-miterlimit="4" stroke-width="2" d="M26.667 16h-21.333"></path>
            <path stroke-linejoin="round" stroke-linecap="round" stroke-miterlimit="4" stroke-width="2" d="M13.333 24l-8-8 8-8"></path>
        </symbol>
        <symbol id="icon-arrow-narrow-right" viewBox="0 0 32 32">
            <path stroke-linejoin="round" stroke-linecap="round" stroke-miterlimit="4" stroke-width="1.6" d="M5.333 16h21.333"></path>
            <path stroke-linejoin="round" stroke-linecap="round" stroke-miterlimit="4" stroke-width="1.6" d="M18.667 8l8 8-8 8"></path>
        </symbol>
    </defs>
</svg>